<?xml version="1.0" encoding="UTF-8"?>
<svg width="175px" height="175px" viewBox="0 0 175 175" version="1.1" xmlns="http://www.w3.org/2000/svg" xmlns:xlink="http://www.w3.org/1999/xlink">
    <!-- Generator: Sketch 59.1 (86144) - https://sketch.com -->
    <title>info</title>
    <desc>Created with Sketch.</desc>
    <g id="info" stroke="none" stroke-width="1" fill="none" fill-rule="evenodd">
        <g fill="#1890FF" fill-rule="nonzero" id="Shape">
            <path d="M87.5,162.5 C46.08125,162.5 12.5,128.91875 12.5,87.5 C12.5,46.08125 46.08125,12.5 87.5,12.5 C128.91875,12.5 162.5,46.08125 162.5,87.5 C162.5,128.91875 128.91875,162.5 87.5,162.5 M87.5,0 C39.25,0 0,39.25 0,87.5 C0,135.75 39.25,175 87.5,175 C135.75,175 175,135.75 175,87.5 C175,39.25 135.75,0 87.5,0"></path>
            <path d="M81.25,137.5 L93.75,137.5 L93.75,81.25 L81.25,81.25 L81.25,137.5 Z M87.5,40.625 C82.3223305,40.625 78.125,44.8223305 78.125,50 C78.125,55.1776695 82.3223305,59.375 87.5,59.375 C92.6776695,59.375 96.875,55.1776695 96.875,50 C96.875,44.8223305 92.6776695,40.625 87.5,40.625"></path>
        </g>
    </g>
</svg>